<?xml version="1.0" encoding="UTF-8" standalone="no"?>
<svg
   xmlns:dc="http://purl.org/dc/elements/1.1/"
   xmlns:cc="http://creativecommons.org/ns#"
   xmlns:rdf="http://www.w3.org/1999/02/22-rdf-syntax-ns#"
   xmlns:svg="http://www.w3.org/2000/svg"
   xmlns="http://www.w3.org/2000/svg"
   xmlns:sodipodi="http://sodipodi.sourceforge.net/DTD/sodipodi-0.dtd"
   xmlns:inkscape="http://www.inkscape.org/namespaces/inkscape"
   width="500"
   height="500"
   viewBox="0 0 132.29167 132.29167"
   version="1.1"
   id="svg1346"
   inkscape:version="1.0.1 (3bc2e813f5, 2020-09-07)"
   sodipodi:docname="lab_tablet.svg"
   inkscape:export-filename="C:\Users\keega\Documents\cannlytics\assets\images\illustrations\outline\lab_tablet.png"
   inkscape:export-xdpi="96"
   inkscape:export-ydpi="96">
  <defs
     id="defs1340" />
  <sodipodi:namedview
     id="base"
     pagecolor="#333644"
     bordercolor="#666666"
     borderopacity="1.0"
     inkscape:pageopacity="0"
     inkscape:pageshadow="2"
     inkscape:zoom="0.98994949"
     inkscape:cx="198.12559"
     inkscape:cy="152.45346"
     inkscape:document-units="mm"
     inkscape:current-layer="layer1"
     inkscape:document-rotation="0"
     showgrid="false"
     units="px"
     inkscape:window-width="1920"
     inkscape:window-height="1120"
     inkscape:window-x="-11"
     inkscape:window-y="-11"
     inkscape:window-maximized="1" />
  <metadata
     id="metadata1343">
    <rdf:RDF>
      <cc:Work
         rdf:about="">
        <dc:format>image/svg+xml</dc:format>
        <dc:type
           rdf:resource="http://purl.org/dc/dcmitype/StillImage" />
        <dc:title></dc:title>
      </cc:Work>
    </rdf:RDF>
  </metadata>
  <g
     inkscape:label="Layer 1"
     inkscape:groupmode="layer"
     id="layer1">
    <path
       d="M 122.52546,2.4441545 V 84.090944"
       style="fill:none;stroke:#f6f6f4;stroke-width:1.73271;stroke-linecap:butt;stroke-linejoin:miter;stroke-miterlimit:10;stroke-dasharray:none;stroke-opacity:1"
       id="path28" />
    <path
       d="M 12.862904,2.4441545 V 84.090944"
       style="fill:none;stroke:#f6f6f4;stroke-width:1.73271;stroke-linecap:butt;stroke-linejoin:miter;stroke-miterlimit:10;stroke-dasharray:none;stroke-opacity:1"
       id="path30" />
    <path
       d="M 129.00681,8.4795126 H 6.3815495 V 6.3232957e-7 H 129.00681 V 8.4795126"
       style="fill:#f6f6f4;fill-opacity:1;fill-rule:nonzero;stroke:none;stroke-width:0.034654"
       id="path32" />
    <path
       d="M 129.00681,21.70109 H 6.3815495 V 13.221579 H 129.00681 v 8.479511"
       style="fill:#f6f6f4;fill-opacity:1;fill-rule:nonzero;stroke:none;stroke-width:0.034654"
       id="path34" />
    <path
       d="M 129.00681,34.923012 H 6.3815495 V 26.4435 H 129.00681 v 8.479512"
       style="fill:#f6f6f4;fill-opacity:1;fill-rule:nonzero;stroke:none;stroke-width:0.034654"
       id="path36" />
    <path
       d="M 129.00681,48.144589 H 6.3815495 V 39.665087 H 129.00681 v 8.479502"
       style="fill:#f6f6f4;fill-opacity:1;fill-rule:nonzero;stroke:none;stroke-width:0.034654"
       id="path38" />
    <path
       d="M 129.00681,61.366521 H 6.3815495 V 52.886655 H 129.00681 v 8.479866"
       style="fill:#f6f6f4;fill-opacity:1;fill-rule:nonzero;stroke:none;stroke-width:0.034654"
       id="path40" />
    <path
       d="M 129.00681,74.588099 H 6.3815495 V 66.108587 H 129.00681 v 8.479512"
       style="fill:#f6f6f4;fill-opacity:1;fill-rule:nonzero;stroke:none;stroke-width:0.034654"
       id="path42" />
    <path
       d="M 129.00681,87.809677 H 6.3815495 V 79.330508 H 129.00681 v 8.479169"
       style="fill:#f6f6f4;fill-opacity:1;fill-rule:nonzero;stroke:none;stroke-width:0.034654"
       id="path44" />
    <path
       d="m 46.368565,121.19397 -39.5728995,0.0486 -0.012132,-9.06102 39.5725545,-0.0478 c 2.502027,-0.004 4.533103,2.02207 4.536915,4.52375 v 0 c 0.0031,2.50233 -2.022066,4.53338 -4.52444,4.53649"
       style="fill:#e1e3e6;fill-opacity:1;fill-rule:nonzero;stroke:none;stroke-width:0.034654"
       id="path46" />
    <path
       d="m 25.500214,121.22281 -18.7045485,0.0198 -0.012132,-9.06102 18.7042025,-0.0191 c 2.502373,-0.004 4.533105,2.02207 4.536915,4.52409 v 0 c 0.0034,2.50165 -2.022066,4.53311 -4.524439,4.53623"
       style="fill:#f6f6f4;fill-opacity:1;fill-rule:nonzero;stroke:none;stroke-width:0.034654"
       id="path48" />
    <path
       d="m 25.296448,119.78848 -18.5257334,0.0187 -0.00835,-6.19022 18.5257324,-0.0194 c 1.70914,-0.002 3.097037,1.38166 3.099465,3.09114 v 0 c 0.0024,1.70942 -1.381659,3.09735 -3.091148,3.09982"
       style="fill:#ffffff;fill-opacity:1;fill-rule:nonzero;stroke:none;stroke-width:0.034654"
       id="path50" />
    <path
       d="m 46.101731,116.66094 c 0.0019,1.24894 -0.422436,2.3849 -1.107892,3.21171 -0.693774,0.81614 -1.649188,1.32351 -2.700595,1.32486 l -4.048983,0.006 c 1.051404,-0.002 2.006817,-0.50886 2.700247,-1.32528 0.685456,-0.82639 1.109971,-1.96277 1.108237,-3.21135 -0.0034,-2.49822 -1.709486,-4.52895 -3.82096,-4.52653 l 4.049331,-0.005 c 2.111475,-0.003 3.817496,2.02796 3.820615,4.52583"
       style="fill:#f6f6f4;fill-opacity:1;fill-rule:nonzero;stroke:none;stroke-width:0.034654"
       id="path52" />
    <path
       d="m 39.804387,116.66995 c 0.0019,1.24859 -0.422088,2.38456 -1.107545,3.21137 -0.694122,0.81655 -1.649188,1.32351 -2.700594,1.32485 l -4.048984,0.006 c 1.051059,-9.9e-4 2.006472,-0.50873 2.700592,-1.32487 0.685112,-0.82681 1.109278,-1.96277 1.107547,-3.21171 -0.0034,-2.49786 -1.709489,-4.52894 -3.820963,-4.52582 l 4.049332,-0.006 c 2.111475,-0.003 3.817496,2.02831 3.820615,4.52652"
       style="fill:#f6f6f4;fill-opacity:1;fill-rule:nonzero;stroke:none;stroke-width:0.034654"
       id="path54" />
    <path
       d="m 52.595907,126.60802 c 0,0.004 0,0.004 0,0.009 0,0.87013 -0.206538,1.68721 -0.566594,2.41564 -0.890611,1.77682 -2.727625,2.99906 -4.848108,3.00312 l -43.8731274,0.0569 -0.016287,-10.84607 43.8731274,-0.0527 c 2.148901,-0.004 4.010171,1.24658 4.888307,3.05931 0.348274,0.71241 0.542683,1.50987 0.542683,2.35539"
       style="fill:#e1e3e6;fill-opacity:1;fill-rule:nonzero;stroke:none;stroke-width:0.034654"
       id="path56" />
    <path
       d="m 52.595907,126.60802 c 0,0.004 0,0.004 0,0.009 0,0.87013 -0.206538,1.68721 -0.566594,2.41564 H 24.979362 v -4.77942 h 27.073862 c 0.348274,0.71241 0.542683,1.50987 0.542683,2.35539"
       style="fill:#e1e3e6;fill-opacity:1;fill-rule:nonzero;stroke:none;stroke-width:0.034654"
       id="path58" />
    <path
       d="m 26.311814,132.06428 -23.0033897,0.0257 -0.014558,-10.84226 23.0030437,-0.0255 c 2.994114,-0.004 5.424405,2.41955 5.428563,5.41359 v 0 c 0.0041,2.99408 -2.419548,5.42448 -5.413662,5.42853"
       style="fill:#f6f6f4;fill-opacity:1;fill-rule:nonzero;stroke:none;stroke-width:0.034654"
       id="path60" />
    <path
       d="m 26.389786,130.34685 -23.0948765,0.0257 -0.010049,-7.40769 23.0945305,-0.0256 c 2.045978,-0.003 3.706601,1.65324 3.709028,3.69853 v 0 c 0.0028,2.04607 -1.653,3.70635 -3.698632,3.70905"
       style="fill:#ffffff;fill-opacity:1;fill-rule:nonzero;stroke:none;stroke-width:0.034654"
       id="path62" />
    <path
       d="M 36.872304,132.07442 V 48.743068"
       style="fill:none;stroke:#17282f;stroke-width:0.34654;stroke-linecap:butt;stroke-linejoin:miter;stroke-miterlimit:10;stroke-dasharray:none;stroke-opacity:1"
       id="path64" />
    <path
       d="M 96.031699,54.465844 H 71.52017"
       style="fill:none;stroke:#17282f;stroke-width:0.34654;stroke-linecap:butt;stroke-linejoin:miter;stroke-miterlimit:10;stroke-dasharray:none;stroke-opacity:1"
       id="path66" />
    <path
       d="M 91.417856,132.07442 V 48.743068"
       style="fill:none;stroke:#17282f;stroke-width:0.34654;stroke-linecap:butt;stroke-linejoin:miter;stroke-miterlimit:10;stroke-dasharray:none;stroke-opacity:1"
       id="path68" />
    <path
       d="M 81.034449,100.00722 H 34.505428 c -1.895233,0 -3.321247,-1.536562 -3.184711,-3.431793 l 4.509885,-62.672978 c 0.135845,-1.895231 1.782954,-3.431787 3.678186,-3.431787 h 46.529014 c 1.895241,0 3.321256,1.536556 3.185067,3.431787 l -4.509884,62.672978 c -0.136199,1.895231 -1.782962,3.431793 -3.678536,3.431793"
       style="fill:#d2d4d7;fill-opacity:1;fill-rule:nonzero;stroke:none;stroke-width:0.034654"
       id="path70" />
    <path
       d="M 77.86498,100.00722 H 31.335617 c -1.895232,0 -3.321246,-1.536562 -3.18471,-3.431793 l 4.509539,-62.672978 c 0.136536,-1.895231 1.783644,-3.431787 3.678532,-3.431787 h 46.529366 c 1.895231,0 3.320902,1.536556 3.18436,3.431787 l -4.509187,62.672978 c -0.136533,1.895231 -1.783649,3.431793 -3.678537,3.431793"
       style="fill:#273d47;fill-opacity:1;fill-rule:nonzero;stroke:none;stroke-width:0.034654"
       id="path72" />
    <path
       d="M 76.545704,97.360694 H 33.035401 c -1.196951,0 -2.097611,-0.970316 -2.011322,-2.167275 L 35.334702,35.2848 c 0.08629,-1.197292 1.126257,-2.167265 2.323211,-2.167265 h 43.510652 c 1.196948,0 2.097265,0.969973 2.010968,2.167265 l -4.310621,59.908619 c -0.08595,1.196959 -1.12626,2.167275 -2.323208,2.167275"
       style="fill:#d2d4d7;fill-opacity:1;fill-rule:nonzero;stroke:none;stroke-width:0.034654"
       id="path74" />
    <path
       d="M 76.545704,97.360694 H 35.016231 c -1.196954,0 -2.097613,-0.970316 -2.01167,-2.167275 L 37.315529,35.2848 c 0.08629,-1.197292 1.12626,-2.167265 2.323212,-2.167265 h 41.529824 c 1.196948,0 2.097265,0.969973 2.010968,2.167265 l -4.310621,59.908619 c -0.08595,1.196959 -1.12626,2.167275 -2.323208,2.167275"
       style="fill:#ffffff;fill-opacity:1;fill-rule:nonzero;stroke:none;stroke-width:0.034654"
       id="path76" />
    <path
       d="m 58.47359,57.607238 -9.600573,-6.379467 0.62031,-0.877793 9.600915,6.379477 -0.620652,0.877783"
       style="fill:#d2d4d7;fill-opacity:1;fill-rule:nonzero;stroke:none;stroke-width:0.034654"
       id="path78" />
    <path
       d="m 50.613692,61.952868 -0.425551,-0.916603 8.383173,-4.32622 0.425207,0.916603 -8.382829,4.32622"
       style="fill:#d2d4d7;fill-opacity:1;fill-rule:nonzero;stroke:none;stroke-width:0.034654"
       id="path80" />
    <path
       d="m 59.022513,57.61209 -0.477189,-0.887487 8.449362,-4.935436 0.477536,0.887488 -8.449709,4.935435"
       style="fill:#d2d4d7;fill-opacity:1;fill-rule:nonzero;stroke:none;stroke-width:0.034654"
       id="path82" />
    <path
       d="m 67.393901,65.434214 -8.969521,-7.864747 0.719076,-0.802241 8.96917,7.86509 -0.718725,0.801898"
       style="fill:#d2d4d7;fill-opacity:1;fill-rule:nonzero;stroke:none;stroke-width:0.034654"
       id="path84" />
    <path
       d="m 67.184588,54.836994 c -1.443687,0.07623 -2.591775,-1.027497 -2.564742,-2.465635 0.02701,-1.438147 1.219129,-2.666294 2.662817,-2.742532 1.443688,-0.07662 2.592129,1.027498 2.565095,2.465636 -0.02701,1.438147 -1.219482,2.66595 -2.66317,2.742531"
       style="fill:#79a7dc;fill-opacity:1;fill-rule:nonzero;stroke:none;stroke-width:0.034654"
       id="path86" />
    <path
       d="m 50.351707,64.09865 c -1.443688,0.07623 -2.592126,-1.027498 -2.564747,-2.465645 0.02703,-1.438491 1.219129,-2.666284 2.66282,-2.742522 1.443688,-0.07662 2.592126,1.027498 2.565095,2.465635 -0.02738,1.438147 -1.219478,2.665941 -2.663168,2.742532"
       style="fill:#79a7dc;fill-opacity:1;fill-rule:nonzero;stroke:none;stroke-width:0.034654"
       id="path88" />
    <path
       d="m 67.704059,67.637176 c -1.443688,0.07662 -2.592129,-1.027144 -2.565095,-2.465635 0.02701,-1.438147 1.219129,-2.66594 2.662816,-2.742532 1.443688,-0.07662 2.592473,1.027498 2.565439,2.465645 -0.02701,1.438147 -1.219472,2.666284 -2.66316,2.742522"
       style="fill:#273d47;fill-opacity:1;fill-rule:nonzero;stroke:none;stroke-width:0.034654"
       id="path90" />
    <path
       d="m 49.134309,53.392953 c -1.443688,0.07623 -2.592126,-1.027488 -2.565096,-2.465635 0.02703,-1.438147 1.219132,-2.666284 2.663169,-2.742522 1.443687,-0.07662 2.592125,1.027488 2.565095,2.465635 -0.02703,1.438147 -1.219478,2.665941 -2.663168,2.742522"
       style="fill:#273d47;fill-opacity:1;fill-rule:nonzero;stroke:none;stroke-width:0.034654"
       id="path92" />
    <path
       d="m 58.712009,61.002306 c -2.125683,0.112623 -3.816801,-1.512657 -3.776604,-3.630364 0.03985,-2.117363 1.795083,-3.925275 3.920767,-4.037899 2.125678,-0.112279 3.816459,1.513001 3.776606,3.630364 -0.03988,2.117717 -1.795083,3.925266 -3.920769,4.037899"
       style="fill:#9ac0e9;fill-opacity:1;fill-rule:nonzero;stroke:none;stroke-width:0.034654"
       id="path94" />
    <path
       d="m 41.515954,71.890272 h 32.19539"
       style="fill:none;stroke:#e7e8e5;stroke-width:1.38616;stroke-linecap:round;stroke-linejoin:round;stroke-miterlimit:10;stroke-dasharray:none;stroke-opacity:1"
       id="path96" />
    <path
       d="M 41.129214,77.267202 H 73.324605"
       style="fill:none;stroke:#e7e8e5;stroke-width:1.38616;stroke-linecap:round;stroke-linejoin:round;stroke-miterlimit:10;stroke-dasharray:none;stroke-opacity:1"
       id="path98" />
    <path
       d="M 40.742126,82.644132 H 60.27179"
       style="fill:none;stroke:#e7e8e5;stroke-width:1.38616;stroke-linecap:round;stroke-linejoin:round;stroke-miterlimit:10;stroke-dasharray:none;stroke-opacity:1"
       id="path100" />
    <path
       d="M 40.355041,88.021416 H 52.402192"
       style="fill:none;stroke:#e7e8e5;stroke-width:1.38616;stroke-linecap:round;stroke-linejoin:round;stroke-miterlimit:10;stroke-dasharray:none;stroke-opacity:1"
       id="path102" />
    <path
       d="M 74.095658,43.963232 H 44.848291 c -1.274577,0 -2.23311,-1.033391 -2.141622,-2.307619 v 0 c 0.09184,-1.274227 1.19903,-2.307265 2.473607,-2.307265 h 29.247367 c 1.273884,0 2.232766,1.033038 2.140929,2.307265 v 0 c -0.09145,1.274228 -1.199031,2.307619 -2.472914,2.307619"
       style="fill:#e1e3e6;fill-opacity:1;fill-rule:nonzero;stroke:none;stroke-width:0.034654"
       id="path104" />
    <path
       d="M 93.468686,56.517019 H 89.366681 V 52.41467 h 4.102005 v 4.102349"
       style="fill:#17282f;fill-opacity:1;fill-rule:nonzero;stroke:none;stroke-width:0.034654"
       id="path106" />
    <path
       d="M 51.350439,130.78668 H 26.678455 v -3.17061 h 24.671984 v 3.17061"
       style="fill:#f6f6f4;fill-opacity:1;fill-rule:nonzero;stroke:none;stroke-width:0.034654"
       id="path220" />
    <path
       d="M 51.350439,130.78668 H 26.678455 v -3.17061 h 24.671984 z"
       style="fill:none;stroke:#273d47;stroke-width:0.34654;stroke-linecap:butt;stroke-linejoin:miter;stroke-miterlimit:10;stroke-dasharray:none;stroke-opacity:1"
       id="path222" />
    <path
       d="M 49.092724,130.78668 H 28.935822 v 1.28774 h 20.156902 v -1.28774"
       style="fill:#f6f6f4;fill-opacity:1;fill-rule:nonzero;stroke:none;stroke-width:0.034654"
       id="path224" />
    <path
       d="M 49.092724,130.78668 H 28.935822 v 1.28774 h 20.156902 z"
       style="fill:none;stroke:#273d47;stroke-width:0.34654;stroke-linecap:butt;stroke-linejoin:miter;stroke-miterlimit:10;stroke-dasharray:none;stroke-opacity:1"
       id="path226" />
    <path
       d="m 119.13663,125.73449 0.005,3.15106 0.005,3.15041 -8.34471,0.0118 -0.003,-2.06229 c -7.7e-4,-0.60132 -0.60713,-1.08783 -1.35427,-1.08675 l -8.326,0.0114 c -0.7468,9.8e-4 -1.351862,0.48935 -1.350821,1.09025 l 0.0029,2.06262 -8.34505,0.0115 -0.0039,-3.1511 -0.0049,-3.15082 27.720851,-0.038"
       style="fill:#17282f;fill-opacity:1;fill-rule:nonzero;stroke:none;stroke-width:0.034654"
       id="path228" />
    <path
       d="m 110.59543,116.36881 -0.004,-2.80525 c -7.7e-4,-0.51704 -0.0554,-1.03304 -0.16356,-1.53899 l -1.68142,-7.87687 c -0.24743,-1.15988 -1.27284,-1.98777 -2.45836,-1.98673 l -3.08248,0.005 -0.006,-4.119673 4.24304,-0.0059 2.9768,-0.0039 c 1.24304,-0.002 2.36549,0.742635 2.84822,1.887594 l 4.81311,11.423739 c 0.39678,0.94189 0.60193,1.95344 0.60366,2.97504 l 0.009,6.65016 0.004,3.06824 -8.09207,0.0111 -18.739909,0.0259 -0.002,-1.76222 c -9.82e-4,-0.72151 0.58288,-1.30712 1.304385,-1.3082 l 12.819234,-0.0176 c 2.54847,-0.003 4.61177,-2.07232 4.60831,-4.62116"
       style="fill:#f6f6f4;fill-opacity:1;fill-rule:nonzero;stroke:none;stroke-width:0.034654"
       id="path230" />
    <path
       d="m 110.59543,116.36881 -0.004,-2.80525 c -7.7e-4,-0.51704 -0.0554,-1.03304 -0.16356,-1.53899 l -1.68142,-7.87687 c -0.24743,-1.15988 -1.27284,-1.98777 -2.45836,-1.98673 l -3.08248,0.005 -0.006,-4.119673 4.24304,-0.0059 2.9768,-0.0039 c 1.24304,-0.002 2.36549,0.742635 2.84822,1.887594 l 4.81311,11.423739 c 0.39678,0.94189 0.60193,1.95344 0.60366,2.97504 l 0.009,6.65016 0.004,3.06824 -8.09207,0.0111 -18.739909,0.0259 -0.002,-1.76222 c -9.82e-4,-0.72151 0.58288,-1.30712 1.304385,-1.3082 l 12.819234,-0.0176 c 2.54847,-0.003 4.61177,-2.07232 4.60831,-4.62116 z"
       style="fill:none;stroke:#273d47;stroke-width:0.34654;stroke-linecap:butt;stroke-linejoin:miter;stroke-miterlimit:10;stroke-dasharray:none;stroke-opacity:1"
       id="path232" />
    <path
       d="m 88.72385,123.67486 33.11476,-0.0458 0.005,3.15082 -33.114768,0.0458 -0.0049,-3.15083"
       style="fill:#273d47;fill-opacity:1;fill-rule:nonzero;stroke:none;stroke-width:0.034654"
       id="path234" />
    <path
       d="m 100.04846,82.03249 3.16842,-0.0039 0.007,5.394946 -3.16807,0.0049 -0.008,-5.395299"
       style="fill:#9ac0e9;fill-opacity:1;fill-rule:nonzero;stroke:none;stroke-width:0.034654"
       id="path236" />
    <path
       d="m 99.36439,83.849057 4.54211,-0.0069 0.035,28.622203 -4.542463,0.006 -0.03468,-28.621846"
       style="fill:#273d47;fill-opacity:1;fill-rule:nonzero;stroke:none;stroke-width:0.034654"
       id="path238" />
    <path
       d="m 97.467076,110.89658 8.401884,-0.0114 -0.0277,-23.465328 -8.401895,0.01179 0.0277,23.464978"
       style="fill:#f6f6f4;fill-opacity:1;fill-rule:nonzero;stroke:none;stroke-width:0.034654"
       id="path240" />
    <path
       d="m 97.467076,110.89658 8.401884,-0.0114 -0.0277,-23.465328 -8.401895,0.01179 z"
       style="fill:none;stroke:#273d47;stroke-width:0.34654;stroke-linecap:butt;stroke-linejoin:miter;stroke-miterlimit:10;stroke-dasharray:none;stroke-opacity:1"
       id="path242" />
    <path
       d="m 100.47193,120.99756 2.42024,-0.004 -0.006,-4.15465 -2.4206,0.004 0.006,4.15468"
       style="fill:#17282f;fill-opacity:1;fill-rule:nonzero;stroke:none;stroke-width:0.034654"
       id="path244" />
    <path
       d="m 102.22855,97.560302 c 0.003,1.995375 1.62285,3.610608 3.61824,3.607828 1.99503,-0.003 3.61061,-1.622502 3.60783,-3.617887 -0.003,-1.995379 -1.6225,-3.610609 -3.61824,-3.607829 -1.99503,0.002 -3.61061,1.622156 -3.60783,3.617888"
       style="fill:#9ac0e9;fill-opacity:1;fill-rule:nonzero;stroke:none;stroke-width:0.034654"
       id="path246" />
    <path
       d="m 103.61575,97.55822 c 0.002,1.229522 0.99978,2.224442 2.22895,2.222703 1.22954,-0.002 2.22479,-0.999419 2.22307,-2.228597 -0.002,-1.229522 -0.99977,-2.22479 -2.2293,-2.223061 -1.22954,0.002 -2.22445,0.999423 -2.22272,2.228955 z"
       style="fill:none;stroke:#17282f;stroke-width:0.34654;stroke-linecap:butt;stroke-linejoin:miter;stroke-miterlimit:10;stroke-dasharray:none;stroke-opacity:1"
       id="path248" />
    <path
       d="m 96.126307,118.23701 11.103873,-0.0155 c 0.48654,-7.9e-4 0.88055,-0.39545 0.87986,-0.88233 v -0.131 c -7.8e-4,-0.48654 -0.3961,-0.88056 -0.88264,-0.87986 l -11.10352,0.0152 c -0.486887,7.7e-4 -0.880906,0.39574 -0.880218,0.88263 l 2.65e-4,0.13065 c 7.76e-4,0.48654 0.395748,0.88091 0.882291,0.88022"
       style="fill:#273d47;fill-opacity:1;fill-rule:nonzero;stroke:none;stroke-width:0.034654"
       id="path250" />
    <path
       d="M 60.87131,106.316 H 41.829226 l 2.927924,4.27493 v 19.29162 c 0,1.2347 1.001157,2.23585 2.235884,2.23585 h 11.642737 c 1.234721,0 2.235539,-1.00115 2.235539,-2.23585 V 106.316"
       style="fill:#f6f6f4;fill-opacity:1;fill-rule:nonzero;stroke:none;stroke-width:0.034654"
       id="path252" />
    <path
       d="M 60.87131,106.316 H 41.829226 l 2.927924,4.27493 v 19.29162 c 0,1.2347 1.001157,2.23585 2.235884,2.23585 h 11.642737 c 1.234721,0 2.235539,-1.00115 2.235539,-2.23585 z"
       style="fill:none;stroke:#273d47;stroke-width:0.34654;stroke-linecap:butt;stroke-linejoin:miter;stroke-miterlimit:10;stroke-dasharray:none;stroke-opacity:1"
       id="path254" />
    <path
       d="M 59.032906,117.67978 H 46.595898 v 11.23204 c 0,0.77595 0.628971,1.40485 1.40453,1.40485 h 9.627949 c 0.775559,0 1.404529,-0.6289 1.404529,-1.40485 v -11.23204"
       style="fill:#9ac0e9;fill-opacity:1;fill-rule:nonzero;stroke:none;stroke-width:0.034654"
       id="path256" />
    <path
       d="m 49.650656,119.8487 c -1.107893,0 -1.108584,1.7193 0,1.7193 1.107544,0 1.108238,-1.7193 0,-1.7193"
       style="fill:#79a7dc;fill-opacity:1;fill-rule:nonzero;stroke:none;stroke-width:0.034654"
       id="path258" />
    <path
       d="m 54.47624,120.97115 c -2.215437,0 -2.216131,3.43849 0,3.43849 2.215782,0 2.216822,-3.43849 0,-3.43849"
       style="fill:#79a7dc;fill-opacity:1;fill-rule:nonzero;stroke:none;stroke-width:0.034654"
       id="path260" />
    <path
       d="m 51.315437,125.84182 c -1.772557,0 -1.773248,2.75081 0,2.75081 1.772212,0 1.773252,-2.75081 0,-2.75081"
       style="fill:#79a7dc;fill-opacity:1;fill-rule:nonzero;stroke:none;stroke-width:0.034654"
       id="path262" />
    <path
       d="M 59.032906,108.85822 H 55.367543"
       style="fill:none;stroke:#17282f;stroke-width:0.34654;stroke-linecap:butt;stroke-linejoin:miter;stroke-miterlimit:10;stroke-dasharray:none;stroke-opacity:1"
       id="path264" />
    <path
       d="M 59.032906,115.48929 H 55.367543"
       style="fill:none;stroke:#17282f;stroke-width:0.34654;stroke-linecap:butt;stroke-linejoin:miter;stroke-miterlimit:10;stroke-dasharray:none;stroke-opacity:1"
       id="path266" />
    <path
       d="M 59.032906,122.12069 H 55.367543"
       style="fill:none;stroke:#17282f;stroke-width:0.34654;stroke-linecap:butt;stroke-linejoin:miter;stroke-miterlimit:10;stroke-dasharray:none;stroke-opacity:1"
       id="path268" />
    <path
       d="M 59.032906,128.75211 H 55.367543"
       style="fill:none;stroke:#17282f;stroke-width:0.34654;stroke-linecap:butt;stroke-linejoin:miter;stroke-miterlimit:10;stroke-dasharray:none;stroke-opacity:1"
       id="path270" />
    <path
       d="M 59.032906,110.46376 H 57.200397"
       style="fill:none;stroke:#17282f;stroke-width:0.34654;stroke-linecap:butt;stroke-linejoin:miter;stroke-miterlimit:10;stroke-dasharray:none;stroke-opacity:1"
       id="path272" />
    <path
       d="M 59.032906,112.13373 H 57.200397"
       style="fill:none;stroke:#17282f;stroke-width:0.34654;stroke-linecap:butt;stroke-linejoin:miter;stroke-miterlimit:10;stroke-dasharray:none;stroke-opacity:1"
       id="path274" />
    <path
       d="M 59.032906,113.80302 H 57.200397"
       style="fill:none;stroke:#17282f;stroke-width:0.34654;stroke-linecap:butt;stroke-linejoin:miter;stroke-miterlimit:10;stroke-dasharray:none;stroke-opacity:1"
       id="path276" />
    <path
       d="M 59.032906,117.13258 H 57.200397"
       style="fill:none;stroke:#17282f;stroke-width:0.34654;stroke-linecap:butt;stroke-linejoin:miter;stroke-miterlimit:10;stroke-dasharray:none;stroke-opacity:1"
       id="path278" />
    <path
       d="M 59.032906,118.80191 H 57.200397"
       style="fill:none;stroke:#17282f;stroke-width:0.34654;stroke-linecap:butt;stroke-linejoin:miter;stroke-miterlimit:10;stroke-dasharray:none;stroke-opacity:1"
       id="path280" />
    <path
       d="M 59.032906,120.4715 H 57.200397"
       style="fill:none;stroke:#17282f;stroke-width:0.34654;stroke-linecap:butt;stroke-linejoin:miter;stroke-miterlimit:10;stroke-dasharray:none;stroke-opacity:1"
       id="path282" />
    <path
       d="M 59.032906,123.80076 H 57.200397"
       style="fill:none;stroke:#17282f;stroke-width:0.34654;stroke-linecap:butt;stroke-linejoin:miter;stroke-miterlimit:10;stroke-dasharray:none;stroke-opacity:1"
       id="path284" />
    <path
       d="M 59.032906,125.47036 H 57.200397"
       style="fill:none;stroke:#17282f;stroke-width:0.34654;stroke-linecap:butt;stroke-linejoin:miter;stroke-miterlimit:10;stroke-dasharray:none;stroke-opacity:1"
       id="path286" />
    <path
       d="M 59.032906,127.14 H 57.200397"
       style="fill:none;stroke:#17282f;stroke-width:0.34654;stroke-linecap:butt;stroke-linejoin:miter;stroke-miterlimit:10;stroke-dasharray:none;stroke-opacity:1"
       id="path288" />
    <path
       d="m 71.667095,114.71442 v -5.42614 h -4.234382 v 5.42614 l -7.884501,15.19167 c -0.51288,0.98833 0.204116,2.16833 1.317548,2.16833 h 17.368288 c 1.113441,0 1.830437,-1.18 1.317548,-2.16833 l -7.884501,-15.19167"
       style="fill:#f6f6f4;fill-opacity:1;fill-rule:nonzero;stroke:none;stroke-width:0.034654"
       id="path290" />
    <path
       d="m 71.667095,114.71442 v -5.42614 h -4.234382 v 5.42614 l -7.884501,15.19167 c -0.51288,0.98833 0.204116,2.16833 1.317548,2.16833 h 17.368288 c 1.113441,0 1.830437,-1.18 1.317548,-2.16833 z"
       style="fill:none;stroke:#273d47;stroke-width:0.34654;stroke-linecap:butt;stroke-linejoin:miter;stroke-miterlimit:10;stroke-dasharray:none;stroke-opacity:1"
       id="path292" />
    <path
       d="M 76.387334,130.7198 H 62.711442 c -0.875365,0 -1.442999,-0.92849 -1.036505,-1.70578 l 4.797861,-9.24221 h 6.156648 l 4.797861,9.24221 c 0.402673,0.77729 -0.161149,1.70578 -1.039973,1.70578"
       style="fill:#9ac0e9;fill-opacity:1;fill-rule:nonzero;stroke:none;stroke-width:0.034654"
       id="path294" />
    <path
       d="m 67.279539,123.28962 c -1.772549,0 -1.773246,2.7508 0,2.7508 1.772559,0 1.773257,-2.7508 0,-2.7508"
       style="fill:#79a7dc;fill-opacity:1;fill-rule:nonzero;stroke:none;stroke-width:0.034654"
       id="path296" />
    <path
       d="m 70.987879,120.97115 c -1.107547,0 -1.107891,1.71919 0,1.71919 1.107891,0 1.108235,-1.71919 0,-1.71919"
       style="fill:#79a7dc;fill-opacity:1;fill-rule:nonzero;stroke:none;stroke-width:0.034654"
       id="path298" />
    <path
       d="m 71.366299,125.23024 c -2.658662,0 -2.659703,4.12585 0,4.12585 2.658661,0 2.659702,-4.12585 0,-4.12585"
       style="fill:#79a7dc;fill-opacity:1;fill-rule:nonzero;stroke:none;stroke-width:0.034654"
       id="path300" />
    <path
       d="m 89.303263,117.20016 v -10.05662 h -4.807911 v 10.05697 c -3.634519,1.04382 -6.297689,4.39063 -6.297689,8.3623 0,2.59217 1.133186,4.91753 2.931737,6.51161 h 11.543282 c 1.795428,-1.59408 2.92827,-3.91944 2.92827,-6.51161 0,-3.97194 -2.661088,-7.31918 -6.297689,-8.36265"
       style="fill:#f6f6f4;fill-opacity:1;fill-rule:nonzero;stroke:none;stroke-width:0.034654"
       id="path302" />
    <path
       d="m 89.303263,117.20016 v -10.05662 h -4.807911 v 10.05697 c -3.634519,1.04382 -6.297689,4.39063 -6.297689,8.3623 0,2.59217 1.133186,4.91753 2.931737,6.51161 h 11.543282 c 1.795428,-1.59408 2.92827,-3.91944 2.92827,-6.51161 0,-3.97194 -2.661088,-7.31918 -6.297689,-8.36265 z"
       style="fill:none;stroke:#273d47;stroke-width:0.34654;stroke-linecap:butt;stroke-linejoin:miter;stroke-miterlimit:10;stroke-dasharray:none;stroke-opacity:1"
       id="path304" />
    <path
       d="m 93.77745,125.53752 c 0,2.06584 -0.903087,3.91904 -2.333602,5.18945 H 82.24457 c -1.433295,-1.27041 -2.336382,-3.12361 -2.336382,-5.18945 0,-3.82997 3.107091,-6.93421 6.934636,-6.93421 3.830315,0 6.934626,3.10424 6.934626,6.93421"
       style="fill:#9ac0e9;fill-opacity:1;fill-rule:nonzero;stroke:none;stroke-width:0.034654"
       id="path306" />
    <path
       d="m 84.851247,124.81398 c -2.438956,0 -2.440341,3.78488 0,3.78488 2.438955,0 2.439996,-3.78488 0,-3.78488"
       style="fill:#79a7dc;fill-opacity:1;fill-rule:nonzero;stroke:none;stroke-width:0.034654"
       id="path308" />
    <path
       d="m 89.227369,121.8306 c -1.772559,0 -1.773247,2.75082 0,2.75082 1.772558,0 1.773256,-2.75082 0,-2.75082"
       style="fill:#79a7dc;fill-opacity:1;fill-rule:nonzero;stroke:none;stroke-width:0.034654"
       id="path310" />
    <path
       d="m 85.897114,120.24803 c -0.885759,0 -0.886456,1.37534 0,1.37534 0.886446,0 0.8868,-1.37534 0,-1.37534"
       style="fill:#79a7dc;fill-opacity:1;fill-rule:nonzero;stroke:none;stroke-width:0.034654"
       id="path312" />
    <path
       d="m 78.913274,121.91901 v -9.54825 h -3.429371 v 9.54783 c -2.801098,0.75522 -4.862665,3.3057 -4.862665,6.34389 0,1.42082 0.450502,2.73767 1.22017,3.81194 h 10.715049 c 0.76897,-1.07427 1.219472,-2.39112 1.219472,-3.81194 0,-3.03755 -2.063296,-5.58797 -4.862655,-6.34347"
       style="fill:#f6f6f4;fill-opacity:1;fill-rule:nonzero;stroke:none;stroke-width:0.034654"
       id="path314" />
    <path
       d="m 78.913274,121.91901 v -9.54825 h -3.429371 v 9.54783 c -2.801098,0.75522 -4.862665,3.3057 -4.862665,6.34389 0,1.42082 0.450502,2.73767 1.22017,3.81194 h 10.715049 c 0.76897,-1.07427 1.219472,-2.39112 1.219472,-3.81194 0,-3.03755 -2.063296,-5.58797 -4.862655,-6.34347 z"
       style="fill:none;stroke:#273d47;stroke-width:0.34654;stroke-linecap:butt;stroke-linejoin:miter;stroke-miterlimit:10;stroke-dasharray:none;stroke-opacity:1"
       id="path316" />
    <path
       d="m 81.684215,128.12005 c 0,0.96882 -0.307388,1.86674 -0.831702,2.59975 h -7.307505 c -0.524667,-0.73301 -0.832045,-1.63093 -0.832045,-2.59975 0,-2.47708 2.006469,-4.48566 4.485964,-4.48566 2.476382,0 4.485288,2.00858 4.485288,4.48566"
       style="fill:#9ac0e9;fill-opacity:1;fill-rule:nonzero;stroke:none;stroke-width:0.034654"
       id="path318" />
    <path
       d="m 75.863364,125.2343 c -1.107547,0 -1.108235,1.71929 0,1.71929 1.107547,0 1.108235,-1.71929 0,-1.71929"
       style="fill:#79a7dc;fill-opacity:1;fill-rule:nonzero;stroke:none;stroke-width:0.034654"
       id="path320" />
    <path
       d="m 78.284991,127.23665 c -1.550426,0 -1.551114,2.40669 0,2.40669 1.551115,0 1.551812,-2.40669 0,-2.40669"
       style="fill:#79a7dc;fill-opacity:1;fill-rule:nonzero;stroke:none;stroke-width:0.034654"
       id="path322" />
    <path
       d="m 15.499042,38.286194 c 0.511841,-0.215198 1.023682,-0.326789 1.535523,-0.407526 0.511841,-0.07593 1.023683,-0.111592 1.53587,-0.112279 0.511841,-7.86e-4 1.023682,0.03497 1.535523,0.110884 0.511841,0.08045 1.024029,0.192338 1.535523,0.408921 -0.511494,0.216591 -1.023682,0.328527 -1.535523,0.408576 -0.511841,0.07623 -1.023682,0.111926 -1.535523,0.110894 -0.512187,-2.65e-4 -1.024029,-0.03605 -1.53587,-0.112279 -0.511841,-0.08035 -1.023682,-0.191985 -1.535523,-0.407191"
       style="fill:#9ac0e9;fill-opacity:1;fill-rule:nonzero;stroke:none;stroke-width:0.034654"
       id="path384" />
    <path
       d="m 18.570435,35.2148 c 0.214856,0.511848 0.326442,1.023687 0.407185,1.535869 0.07658,0.511848 0.111587,1.023686 0.11228,1.535525 0.0011,0.511848 -0.035,1.023686 -0.110894,1.535524 -0.08039,0.511839 -0.192329,1.023687 -0.408571,1.535525 -0.216588,-0.511838 -0.328521,-1.023686 -0.408918,-1.535525 -0.07589,-0.511838 -0.111587,-1.023676 -0.110893,-1.535524 7.01e-4,-0.511839 0.03638,-1.023677 0.112279,-1.535525 0.08075,-0.512182 0.19233,-1.024021 0.407532,-1.535869"
       style="fill:#9ac0e9;fill-opacity:1;fill-rule:nonzero;stroke:none;stroke-width:0.034654"
       id="path386" />
    <path
       d="m 103.88536,66.901123 c 0.51185,-0.215197 1.02403,-0.326788 1.53588,-0.407182 0.51183,-0.07662 1.02367,-0.111935 1.53551,-0.112623 0.51185,-7.86e-4 1.02403,0.03497 1.53553,0.111238 0.51219,0.08006 1.02368,0.191975 1.53586,0.408567 -0.51218,0.216248 -1.02367,0.328528 -1.53586,0.408577 -0.5115,0.07623 -1.02368,0.111926 -1.53553,0.110884 -0.51184,-7.76e-4 -1.02368,-0.03566 -1.53551,-0.112279 -0.51185,-0.08035 -1.02403,-0.191975 -1.53588,-0.407182"
       style="fill:#9ac0e9;fill-opacity:1;fill-rule:nonzero;stroke:none;stroke-width:0.034654"
       id="path388" />
    <path
       d="m 106.95675,63.82973 c 0.21521,0.511848 0.32679,1.023686 0.40754,1.535868 0.0759,0.511849 0.11158,1.023687 0.11228,1.535525 7.7e-4,0.511839 -0.035,1.024031 -0.11124,1.535525 -0.0801,0.512182 -0.19199,1.02403 -0.40858,1.535869 -0.21624,-0.511839 -0.32852,-1.023687 -0.40857,-1.535869 -0.0762,-0.511494 -0.11193,-1.023686 -0.11089,-1.535525 7.8e-4,-0.511838 0.0357,-1.023676 0.11228,-1.535525 0.0803,-0.512182 0.19233,-1.02402 0.40718,-1.535868"
       style="fill:#9ac0e9;fill-opacity:1;fill-rule:nonzero;stroke:none;stroke-width:0.034654"
       id="path390" />
    <path
       d="m 64.401172,20.367255 c 0.511848,-0.215207 1.023686,-0.326788 1.535869,-0.407535 0.511494,-0.07593 1.023686,-0.111582 1.535181,-0.112279 0.512182,-6.98e-4 1.02403,0.03497 1.535868,0.110894 0.511838,0.08035 1.023677,0.192328 1.535869,0.40892 -0.512192,0.216592 -1.024031,0.328518 -1.535869,0.408567 -0.511838,0.07623 -1.023686,0.111936 -1.535868,0.110894 -0.511495,-3.34e-4 -1.023687,-0.03605 -1.535181,-0.112279 -0.512183,-0.08045 -1.024021,-0.192329 -1.535869,-0.407182"
       style="fill:#9ac0e9;fill-opacity:1;fill-rule:nonzero;stroke:none;stroke-width:0.034654"
       id="path392" />
    <path
       d="m 67.472222,17.295862 c 0.215197,0.511838 0.327132,1.023686 0.407525,1.535869 0.07623,0.511838 0.111592,1.023686 0.112279,1.535524 7.86e-4,0.511839 -0.03467,1.023677 -0.110884,1.535525 -0.08006,0.511838 -0.192329,1.023677 -0.40892,1.535525 -0.216249,-0.511848 -0.328174,-1.023687 -0.408224,-1.535525 -0.07623,-0.511848 -0.112279,-1.023686 -0.111238,-1.535525 7.76e-4,-0.511838 0.03605,-1.023686 0.11228,-1.535524 0.08075,-0.512183 0.192328,-1.024031 0.407182,-1.535869"
       style="fill:#9ac0e9;fill-opacity:1;fill-rule:nonzero;stroke:none;stroke-width:0.034654"
       id="path394" />
  </g>
</svg>
